<svg width="25" height="24" viewBox="0 0 25 24" fill="none" xmlns="http://www.w3.org/2000/svg">
<path d="M19.3595 1V4H22.3595V6H19.3595V9H17.3595V6H14.3595V4H17.3595V1H19.3595ZM11.3595 13C10.2595 13 9.3595 12.1 9.3595 11C9.3595 9.9 10.2595 9 11.3595 9C12.4595 9 13.3595 9.9 13.3595 11C13.3595 12.1 12.4595 13 11.3595 13ZM12.3595 3.06V5.08C12.0287 5.02773 11.6944 5.00098 11.3595 5C8.0095 5 5.3595 7.57 5.3595 11.2C5.3595 13.54 7.3095 16.64 11.3595 20.34C15.4095 16.64 17.3595 13.55 17.3595 11.2V11H19.3595V11.2C19.3595 14.52 16.6895 18.45 11.3595 23C6.0295 18.45 3.3595 14.52 3.3595 11.2C3.3595 6.22 7.1595 3 11.3595 3C11.6995 3 12.0295 3.02 12.3595 3.06Z" fill="white"/>
</svg>
