<svg width="25" height="24" viewBox="0 0 25 24" fill="none" xmlns="http://www.w3.org/2000/svg">
<path d="M15.7799 12C17.9899 12 19.7799 10.21 19.7799 8C19.7799 5.79 17.9899 4 15.7799 4C13.5699 4 11.7799 5.79 11.7799 8C11.7799 10.21 13.5699 12 15.7799 12ZM15.7799 6C16.8799 6 17.7799 6.9 17.7799 8C17.7799 9.1 16.8799 10 15.7799 10C14.6799 10 13.7799 9.1 13.7799 8C13.7799 6.9 14.6799 6 15.7799 6ZM15.7799 14C13.1099 14 7.77991 15.34 7.77991 18V20H23.7799V18C23.7799 15.34 18.4499 14 15.7799 14ZM9.77991 18C9.99991 17.28 13.0899 16 15.7799 16C18.4799 16 21.5799 17.29 21.7799 18H9.77991ZM6.77991 15V12H9.77991V10H6.77991V7H4.77991V10H1.77991V12H4.77991V15H6.77991Z" fill="#1669BB"/>
</svg>
