<svg width="25" height="24" viewBox="0 0 25 24" fill="none" xmlns="http://www.w3.org/2000/svg">
<path d="M19 15.75C19 17.4833 18.3917 18.9583 17.175 20.175C15.9583 21.3917 14.4833 22 12.75 22C11.0167 22 9.54167 21.3917 8.325 20.175C7.10833 18.9583 6.5 17.4833 6.5 15.75V6.5C6.5 5.25 6.9375 4.1875 7.8125 3.3125C8.6875 2.4375 9.75 2 11 2C12.25 2 13.3125 2.4375 14.1875 3.3125C15.0625 4.1875 15.5 5.25 15.5 6.5V15.25C15.5 16.0167 15.2333 16.6667 14.7 17.2C14.1667 17.7333 13.5167 18 12.75 18C11.9833 18 11.3333 17.7333 10.8 17.2C10.2667 16.6667 10 16.0167 10 15.25V6H12V15.25C12 15.4667 12.0708 15.6458 12.2125 15.7875C12.3542 15.9292 12.5333 16 12.75 16C12.9667 16 13.1458 15.9292 13.2875 15.7875C13.4292 15.6458 13.5 15.4667 13.5 15.25V6.5C13.4833 5.8 13.2375 5.20833 12.7625 4.725C12.2875 4.24167 11.7 4 11 4C10.3 4 9.70833 4.24167 9.225 4.725C8.74167 5.20833 8.5 5.8 8.5 6.5V15.75C8.48333 16.9333 8.89167 17.9375 9.725 18.7625C10.5583 19.5875 11.5667 20 12.75 20C13.9167 20 14.9083 19.5875 15.725 18.7625C16.5417 17.9375 16.9667 16.9333 17 15.75V6H19V15.75Z" fill="#212529"/>
</svg>
