<svg width="21" height="20" viewBox="0 0 21 20" fill="none" xmlns="http://www.w3.org/2000/svg">
<path d="M9.66699 5.83317H11.3337V7.49984H9.66699V5.83317ZM9.66699 9.1665H11.3337V14.1665H9.66699V9.1665ZM10.5003 1.6665C5.90033 1.6665 2.16699 5.39984 2.16699 9.99984C2.16699 14.5998 5.90033 18.3332 10.5003 18.3332C15.1003 18.3332 18.8337 14.5998 18.8337 9.99984C18.8337 5.39984 15.1003 1.6665 10.5003 1.6665ZM10.5003 16.6665C6.82533 16.6665 3.83366 13.6748 3.83366 9.99984C3.83366 6.32484 6.82533 3.33317 10.5003 3.33317C14.1753 3.33317 17.167 6.32484 17.167 9.99984C17.167 13.6748 14.1753 16.6665 10.5003 16.6665Z" fill="#1669BB"/>
</svg>
