<svg width="48" height="44" viewBox="0 0 48 44" fill="none" xmlns="http://www.w3.org/2000/svg">
<g clip-path="url(#clip0_2776_3025)">
<path d="M22.4844 30H26.5156C26.5156 30.5625 26.3203 31.0391 25.9297 31.4297C25.5391 31.8203 25.0625 32.0156 24.5 32.0156C23.9375 32.0156 23.4609 31.8203 23.0703 31.4297C22.6797 31.0391 22.4844 30.5625 22.4844 30ZM33.5 27.9844V29.0156H15.5V27.9844L17.5156 26.0156V20.0156C17.5156 18.4531 17.9688 17.0547 18.875 15.8203C19.7812 14.5859 20.9844 13.75 22.4844 13.3125V12.9844C22.4844 12.4531 22.6797 11.9922 23.0703 11.6016C23.4609 11.2109 23.9375 11.0156 24.5 11.0156C25.0625 11.0156 25.5391 11.2109 25.9297 11.6016C26.3203 11.9922 26.5156 12.4531 26.5156 12.9844V13.3125C28.0156 13.75 29.2188 14.5859 30.125 15.8203C31.0312 17.0547 31.4844 18.4531 31.4844 20.0156V26.0156L33.5 27.9844ZM29.5156 20.0156C29.5156 19.0781 29.2891 18.2266 28.8359 17.4609C28.3828 16.6953 27.7734 16.0938 27.0078 15.6562C26.2422 15.2188 25.4062 15 24.5 15C23.5938 15 22.7578 15.2188 21.9922 15.6562C21.2266 16.0938 20.6172 16.6953 20.1641 17.4609C19.7109 18.2266 19.4844 19.0781 19.4844 20.0156V27H29.5156V20.0156Z" fill="white"/>
</g>
<defs>
<clipPath id="clip0_2776_3025">
<rect width="18" height="22" fill="white" transform="matrix(1 0 0 -1 15.5 33)"/>
</clipPath>
</defs>
</svg>
